<svg width="27" height="27" viewBox="0 0 40 40" fill="none" xmlns="http://www.w3.org/2000/svg">
<g clip-path="url(#clip0_226_178)">
<path fill-rule="evenodd" clip-rule="evenodd" d="M1.33337 5.3516C1.33337 3.86876 2.53323 2.66667 4.01829 2.66667H35.9818C37.4646 2.66667 38.6667 3.86655 38.6667 5.3516V37.3151C38.6667 38.7979 37.4668 40 35.9818 40H4.01829C2.53545 40 1.33337 38.8001 1.33337 37.3151V5.3516ZM4.00004 13.3333H36V37.3333H4.00004V13.3333ZM26.6667 30.6667V20H24.6867L21.3334 23.3743L22.6268 24.7336L24.3993 22.9266V30.6667H26.6667ZM16 30.6667C18.4335 30.6667 20 29.4127 20 27.6323C20 26.0842 18.6616 25.2637 17.6274 25.1553C18.7529 24.9541 19.8479 24.1026 19.8479 22.8021C19.8479 21.0837 18.3879 20 16.0153 20C14.2358 20 12.9582 20.6967 12.1369 21.641L13.2168 23.0189C13.9316 22.3222 14.8137 21.9506 15.8023 21.9506C16.8518 21.9506 17.6883 22.3532 17.6883 23.1737C17.6883 23.9323 16.9278 24.2729 15.8023 24.2729C15.4221 24.2729 14.7225 24.2728 14.54 24.2574V26.239C14.692 26.2235 15.3765 26.208 15.8023 26.208C17.2168 26.208 17.8404 26.5796 17.8404 27.4001C17.8404 28.1742 17.1559 28.716 15.924 28.716C14.9354 28.716 13.8251 28.2825 13.1407 27.5394L12 29.0102C12.7453 29.9391 14.1445 30.6667 16 30.6667ZM9.33337 1.33333C9.33337 0.596955 9.90413 0 10.6792 0H13.3209C14.0642 0 14.6667 0.618491 14.6667 1.33333V2.66667H9.33337V1.33333ZM25.3334 1.33333C25.3334 0.596955 25.9041 0 26.6792 0H29.3209C30.0642 0 30.6667 0.618491 30.6667 1.33333V2.66667H25.3334V1.33333Z" fill="black"/>
</g>
<defs>
<clipPath id="clip0_226_178">
<rect width="40" height="40" fill="white"/>
</clipPath>
</defs>
</svg>
