<svg width="25" height="25" viewBox="0 0 45 45" fill="none" xmlns="http://www.w3.org/2000/svg">
<path d="M1.875 15C1.875 14.5027 2.07254 14.0258 2.42417 13.6742C2.77581 13.3226 3.25272 13.125 3.75 13.125H17.9738L13.6744 8.82565C13.4953 8.65269 13.3525 8.4458 13.2542 8.21704C13.1559 7.98828 13.1042 7.74224 13.102 7.49328C13.0999 7.24432 13.1473 6.99742 13.2416 6.76699C13.3359 6.53656 13.4751 6.32721 13.6511 6.15116C13.8272 5.97512 14.0365 5.83589 14.267 5.74161C14.4974 5.64734 14.7443 5.5999 14.9933 5.60206C15.2422 5.60422 15.4883 5.65595 15.717 5.75422C15.9458 5.85248 16.1527 5.99532 16.3256 6.17441L23.8256 13.6744C24.1771 14.026 24.3746 14.5028 24.3746 15C24.3746 15.4972 24.1771 15.974 23.8256 16.3257L16.3256 23.8257C16.1527 24.0047 15.9458 24.1476 15.717 24.2458C15.4883 24.3441 15.2422 24.3958 14.9933 24.398C14.7443 24.4002 14.4974 24.3527 14.267 24.2584C14.0365 24.1642 13.8272 24.0249 13.6511 23.8489C13.4751 23.6728 13.3359 23.4635 13.2416 23.2331C13.1473 23.0026 13.0999 22.7557 13.102 22.5068C13.1042 22.2578 13.1559 22.0118 13.2542 21.783C13.3525 21.5543 13.4953 21.3474 13.6744 21.1744L17.9738 16.875H3.75C3.25272 16.875 2.77581 16.6775 2.42417 16.3259C2.07254 15.9742 1.875 15.4973 1.875 15ZM41.25 28.125H27.0262L31.3256 23.8257C31.6672 23.472 31.8562 22.9984 31.8519 22.5068C31.8476 22.0152 31.6504 21.5449 31.3028 21.1972C30.9551 20.8496 30.4849 20.6524 29.9933 20.6481C29.5016 20.6439 29.028 20.8329 28.6744 21.1744L21.1744 28.6744C20.8229 29.026 20.6254 29.5028 20.6254 30C20.6254 30.4972 20.8229 30.974 21.1744 31.3257L28.6744 38.8257C29.028 39.1672 29.5016 39.3562 29.9933 39.3519C30.4849 39.3476 30.9551 39.1505 31.3028 38.8028C31.6504 38.4552 31.8476 37.9849 31.8519 37.4933C31.8562 37.0017 31.6672 36.528 31.3256 36.1744L27.0262 31.875H41.25C41.7473 31.875 42.2242 31.6775 42.5758 31.3259C42.9275 30.9742 43.125 30.4973 43.125 30C43.125 29.5027 42.9275 29.0258 42.5758 28.6742C42.2242 28.3226 41.7473 28.125 41.25 28.125Z" fill="#FF8000"/>
</svg>
