<svg width="30" height="30" viewBox="0 0 30 30" fill="none" xmlns="http://www.w3.org/2000/svg">
<g clip-path="url(#clip0_222_190)">
<path d="M14.9999 2.26963L19.0274 10.6218L28.1858 11.9831L21.553 18.599L21.7762 19.9265L23.1027 27.8418L14.999 23.4834L6.89615 27.8446L8.22271 19.9284L8.4449 18.6009L1.81396 11.9831L10.9715 10.6218L11.5733 9.37588L14.9999 2.26963ZM14.999 0.455566C14.159 0.455566 13.394 0.929004 13.0368 1.67057L9.64115 8.72057L1.82709 9.88213C1.02459 10.0021 0.358027 10.5506 0.099277 11.2996C-0.159473 12.0515 0.0364645 12.8784 0.602714 13.4428L6.32709 19.1615L4.99865 27.0909C4.86459 27.8896 5.21053 28.6912 5.88834 29.159C6.26053 29.4149 6.69834 29.5443 7.13709 29.5443C7.49803 29.5443 7.85896 29.4571 8.18615 29.2809L14.998 25.6134L21.8099 29.2809C22.1371 29.4562 22.499 29.5443 22.858 29.5443C23.2968 29.5443 23.7337 29.4149 24.1077 29.159C24.7846 28.6921 25.1305 27.8906 24.9955 27.0909L23.6671 19.1615L29.3952 13.4428C29.9624 12.8793 30.1565 12.0506 29.8977 11.2996C29.639 10.5487 28.9715 10.0012 28.1699 9.88213L20.3577 8.72057L16.9602 1.67057C16.6058 0.929004 15.8399 0.456504 14.998 0.456504L14.999 0.455566Z" fill="white"/>
</g>
<defs>
<clipPath id="clip0_222_190">
<rect width="30" height="30" fill="white"/>
</clipPath>
</defs>
</svg>
