<svg width="30" height="30" viewBox="0 0 30 30" fill="none" xmlns="http://www.w3.org/2000/svg">
<g clip-path="url(#clip0_222_197)">
<path d="M29.4371 11.1267C29.2168 10.4709 28.6491 9.99281 27.9657 9.88828L20.0115 8.67281L16.4387 1.06172C16.134 0.412969 15.4829 0 14.7676 0C14.0518 0 13.4012 0.412969 13.0965 1.06172L9.52321 8.67328L1.56899 9.88875C0.885549 9.99328 0.317893 10.4709 0.098049 11.1272C-0.121795 11.7834 0.0441427 12.5062 0.527424 13.0022L6.33617 18.9586L4.96039 27.3853C4.84696 28.0828 5.14274 28.7841 5.71977 29.1919C6.29633 29.5997 7.05758 29.6409 7.67774 29.2987L14.768 25.3777L21.8584 29.2987C22.1382 29.4534 22.4462 29.5294 22.7527 29.5294C23.1259 29.5294 23.499 29.4159 23.8163 29.1919C24.3934 28.7845 24.6887 28.0833 24.5752 27.3853L23.1995 18.9586L29.0087 13.0022C29.491 12.5062 29.657 11.7834 29.4371 11.1267Z" fill="#FF8000"/>
</g>
<defs>
<clipPath id="clip0_222_197">
<rect width="30" height="30" fill="white"/>
</clipPath>
</defs>
</svg>
